# xmcd
#
# Track frame offsets:
# 150
# 22110
# 31245
# 50415
# 74595
# 91225
# 104895
# 115765
# 131790
# 149660
# 160375
# 173405
# 186435
#
# Disc length: 2649 seconds
#
#
# Revision: 0
# Processed by: cddbd v1.5.1PL0 Copyright (c) Steve Scherf et al.
# Submitted via: FreeRIP 2.941 
#
DISCID=c20a570d
DTITLE=Little Johnny Kantreed - Acoustic Alley Blues
DYEAR=2005
DGENRE=Blues
TTITLE0=Yonder Come The Blues
TTITLE1=CakeWalk Into Town
TTITLE2=Relatives
TTITLE3=Flat World
TTITLE4=Nashville Blues
TTITLE5=Old Shoes
TTITLE6=Fishing Blues
TTITLE7=You Could Do A Lot Worse
TTITLE8=Stagger Lee
TTITLE9=If I Had My Way
TTITLE10=When You Leave Me
TTITLE11=See You Tomorrow Blues
TTITLE12=Bird By Bird
EXTD=as heard on\nBluesfestRadio.com
EXTT0=
EXTT1=
EXTT2=
EXTT3=
EXTT4=
EXTT5=
EXTT6=
EXTT7=
EXTT8=
EXTT9=
EXTT10=
EXTT11=
EXTT12=
PLAYORDER=
